<svg xmlns="http://www.w3.org/2000/svg" xmlns:xlink="http://www.w3.org/1999/xlink" width="336" zoomAndPan="magnify" viewBox="0 0 252 143.999998" height="192" preserveAspectRatio="xMidYMid meet" version="1.0"><path fill="rgb(78.039551%, 81.568909%, 84.709167%)" d="M 135.433594 1.398438 L 156.636719 44.324219 C 156.957031 45.074219 157.710938 45.613281 158.574219 45.71875 L 206.035156 52.585938 C 208.082031 52.910156 208.941406 55.484375 207.433594 56.878906 L 173.101562 90.253906 C 172.457031 90.789062 172.242188 91.648438 172.347656 92.507812 L 180.421875 139.726562 C 180.742188 141.765625 178.589844 143.375 176.761719 142.410156 L 134.25 120.085938 C 133.496094 119.65625 132.636719 119.65625 131.882812 120.085938 L 89.367188 142.410156 C 87.539062 143.375 85.386719 141.765625 85.710938 139.726562 L 93.78125 92.507812 C 93.890625 91.648438 93.675781 90.898438 93.027344 90.253906 L 58.804688 56.878906 C 57.296875 55.378906 58.15625 52.910156 60.203125 52.585938 L 107.664062 45.71875 C 108.527344 45.613281 109.171875 45.074219 109.601562 44.324219 L 130.804688 1.398438 C 131.773438 -0.425781 134.464844 -0.425781 135.433594 1.398438 Z M 135.433594 1.398438 " fill-opacity="1" fill-rule="nonzero"/></svg>